<svg version="1.2" xmlns="http://www.w3.org/2000/svg" viewBox="0 0 500 500" width="500" height="500"><style>.a{fill:#fefefe}</style><path class="a" d="m65.7 139h-48.6v222h48.6zm94.8 222v-77.7h37.5l33.3 77.7h53.1l-39-88.2c24.6-12.6 36.9-33 36.9-61.8 0-45.9-30.6-72-84.6-72h-85.8v222zm0-178.8h37.2c21.6 0 33.3 10.2 33.3 28.8 0 18.9-12.3 29.7-33.6 29.7h-36.9zm247.8 105c45.3 0 75.6-29.7 75.6-74.1 0-44.4-30.3-74.1-75.6-74.1h-90v222h48.6v-73.8zm-10.8-105c23.4 0 35.1 10.2 35.1 30.9 0 20.7-11.7 30.9-35.1 30.9h-30.6v-61.8z"/></svg>